<?xml version="1.0" encoding="UTF-8"?>
<svg version="1.1" xmlns="http://www.w3.org/2000/svg" width="180" height="180">
<path d="M0 0 C15.01853975 13.99729841 26.66761521 34.68924498 27.98950195 55.54223633 C28.5671151 84.19506994 23.31080483 107.82132092 3.15039062 129.45263672 C-12.71664319 145.82158691 -34.61979809 155.67864427 -57.4152832 156.04248047 C-84.23308171 156.19224955 -106.77862118 148.64405801 -126.37109375 129.65234375 C-144.09072389 111.77659352 -151.98660912 87.86586359 -152.22265625 63.0546875 C-151.06628941 38.29151464 -140.08693171 15.74450594 -122.1875 -1.25 C-87.06032032 -32.17559769 -34.56655839 -30.93547911 0 0 Z " fill="#5E6337" transform="translate(152.1875,24.25)"/>
<path d="M0 0 C15.01853975 13.99729841 26.66761521 34.68924498 27.98950195 55.54223633 C28.5671151 84.19506994 23.31080483 107.82132092 3.15039062 129.45263672 C-12.71664319 145.82158691 -34.61979809 155.67864427 -57.4152832 156.04248047 C-84.23308171 156.19224955 -106.77862118 148.64405801 -126.37109375 129.65234375 C-144.09072389 111.77659352 -151.98660912 87.86586359 -152.22265625 63.0546875 C-151.06628941 38.29151464 -140.08693171 15.74450594 -122.1875 -1.25 C-87.06032032 -32.17559769 -34.56655839 -30.93547911 0 0 Z M-126.80859375 8.96484375 C-136.4187299 20.21611974 -143.85992292 33.98236234 -145.86328125 48.73828125 C-146.1875 50.75 -146.1875 50.75 -147.1875 51.75 C-148.3360497 65.73062225 -147.80247954 79.46491134 -143.1875 92.75 C-142.82527344 93.79929687 -142.46304688 94.84859375 -142.08984375 95.9296875 C-133.73036983 117.74933128 -117.92349273 134.41086848 -96.73657227 144.06542969 C-74.69623769 153.58400937 -52.19581186 153.12226768 -29.9375 144.4375 C-8.1803853 134.7056014 7.67413842 118.80102872 16.8125 96.75 C18.40021104 92.48938933 19.67370793 88.1507558 20.8125 83.75 C20.9868457 83.1629126 21.16119141 82.5758252 21.34082031 81.97094727 C26.14388117 59.3552927 20.39151954 36.18176415 8.125 17.12890625 C-6.37528841 -2.42556923 -27.24454269 -15.04636061 -51.1875 -19.25 C-80.84812602 -21.55198394 -105.89570444 -12.75367854 -126.80859375 8.96484375 Z " fill="#D4B77A" transform="translate(152.1875,24.25)"/>
<path d="M0 0 C0.33 0 0.66 0 1 0 C1 2.97 1 5.94 1 9 C4.3 9 7.6 9 11 9 C11 31.44 11 53.88 11 77 C7.7 77 4.4 77 1 77 C1 80.63 1 84.26 1 88 C-7.20558733 80.7682626 -12.04053044 66.66478066 -13 56 C-13.23797095 51.81185677 -13.3334316 47.63190581 -13.375 43.4375 C-13.38909912 42.39674316 -13.40319824 41.35598633 -13.41772461 40.28369141 C-13.32875583 25.98336841 -9.155527 11.19008856 0 0 Z " fill="#E4C283" transform="translate(25,46)"/>
<path d="M0 0 C0.99 0.495 0.99 0.495 2 1 C-8.52730604 11.26590567 -19.95995227 18.51542494 -34 23 C-34.80381104 23.26111572 -35.60762207 23.52223145 -36.43579102 23.79125977 C-43.29773384 25.86560098 -49.54267767 26.43134269 -56.6875 26.3125 C-57.66783203 26.31572266 -58.64816406 26.31894531 -59.65820312 26.32226562 C-65.46215304 26.27950377 -70.43905077 25.65759064 -76 24 C-76.99644531 23.71640625 -77.99289063 23.4328125 -79.01953125 23.140625 C-86.18764885 20.85484764 -92.53357106 17.83082283 -99 14 C-99.92941406 13.48566406 -100.85882813 12.97132813 -101.81640625 12.44140625 C-102.53699219 11.96574219 -103.25757813 11.49007812 -104 11 C-104 10.34 -104 9.68 -104 9 C-103.02884247 8.99413376 -102.05768494 8.98826752 -101.05709839 8.98222351 C-91.84899623 8.92470039 -82.64112356 8.85178792 -73.43325615 8.76428509 C-68.70080179 8.71979404 -63.96842931 8.68049271 -59.23583984 8.65356445 C-54.65800109 8.62731722 -50.08048117 8.58676825 -45.50284195 8.53681374 C-43.76723357 8.5202884 -42.03157024 8.50868583 -40.29589462 8.50238609 C-26.71414113 8.44816268 -13.97026147 7.85041555 -1.890625 0.890625 C-1.26671875 0.59671875 -0.6428125 0.3028125 0 0 Z " fill="#E0BF80" transform="translate(146,142)"/>
<path d="M0 0 C4.97708283 3.44849474 9.63580364 7.19708861 14.1796875 11.203125 C13.5196875 11.533125 12.8596875 11.863125 12.1796875 12.203125 C11.0659375 11.625625 9.9521875 11.048125 8.8046875 10.453125 C-2.30735748 4.73036485 -13.87519856 4.73650625 -26.0546875 4.69140625 C-27.78632858 4.67452605 -29.51795766 4.65637142 -31.24957275 4.63700867 C-35.76705166 4.58986475 -40.28448189 4.55982654 -44.80212402 4.53356934 C-49.42807627 4.50358235 -54.05386131 4.4571152 -58.6796875 4.41210938 C-67.72647438 4.32648237 -76.77329606 4.25895836 -85.8203125 4.203125 C-85.8203125 3.543125 -85.8203125 2.883125 -85.8203125 2.203125 C-76.71453599 -2.98578222 -68.04986486 -7.18413219 -57.8203125 -9.796875 C-57.20704102 -9.97049561 -56.59376953 -10.14411621 -55.96191406 -10.32299805 C-37.20303481 -14.47381709 -16.1258861 -9.94113449 0 0 Z " fill="#DFBF80" transform="translate(130.8203125,22.796875)"/>
<path d="M0 0 C8.78678159 7.56803336 13.78827213 22.84739787 15 34 C16.03217823 48.90335971 14.65585973 61.11511913 9 75 C8.67 75 8.34 75 8 75 C7.98582031 74.32195312 7.97164062 73.64390625 7.95703125 72.9453125 C7.5479133 64.96198384 5.8365234 58.15185409 0.2890625 52.1484375 C-1.41094797 50.64144132 -3.13930123 49.30118795 -5 48 C-5.763125 47.443125 -6.52625 46.88625 -7.3125 46.3125 C-10.72821553 44.64435986 -14.21962372 43.70728787 -17.890625 42.74609375 C-20 42 -20 42 -21 40 C-20.13117188 39.72027344 -19.26234375 39.44054687 -18.3671875 39.15234375 C-9.77947232 36.16489473 -5.0376651 33.69202861 -0.76171875 25.6796875 C3.24521425 16.89472787 2.6894186 9.07678776 0 0 Z " fill="#E0BF81" transform="translate(153,45)"/>
<path d="M0 0 C2.51625 -0.061875 5.0325 -0.12375 7.625 -0.1875 C8.79603271 -0.22846802 8.79603271 -0.22846802 9.99072266 -0.27026367 C14.72198885 -0.3261164 17.93033526 0.34457359 22 3 C24.13802064 5.16959478 24.9001154 6.39775462 25.3984375 9.40234375 C25.31569116 18.35273973 25.31569116 18.35273973 22 22 C17.05311657 25.08435202 13.24716884 25.38418888 7.625 25.1875 C3.850625 25.0946875 3.850625 25.0946875 0 25 C0 16.75 0 8.5 0 0 Z " fill="#E4C283" transform="translate(84,99)"/>
<path d="M0 0 C2.51625 -0.0825 5.0325 -0.165 7.625 -0.25 C8.79603271 -0.30462402 8.79603271 -0.30462402 9.99072266 -0.36035156 C15.10756939 -0.44089091 17.95525116 0.62330277 22 4 C24.83160532 8.24740799 24.64522317 12.01346043 24 17 C21.66787763 21.14599532 19.46529253 22.61379655 15 24 C12.34490385 24.13756975 9.8323525 24.19029073 7.1875 24.125 C4.815625 24.08375 2.44375 24.0425 0 24 C0 16.08 0 8.16 0 0 Z " fill="#E2C081" transform="translate(84,53)"/>
<path d="M0 0 C5.30199626 0.15594107 8.34550253 3.55613639 12 7 C11.01 7.495 11.01 7.495 10 8 C8.30078125 7.29296875 8.30078125 7.29296875 6.3125 6.1875 C2.58684162 4.21909914 -0.91889605 3.02027599 -5 2 C-4.360625 1.855625 -3.72125 1.71125 -3.0625 1.5625 C-1.02454854 1.18992819 -1.02454854 1.18992819 0 0 Z " fill="#C7AF75" transform="translate(133,27)"/>
<path d="M0 0 C3.48331435 3.01887244 4.79157144 5.56909529 6 10 C5.34 10 4.68 10 4 10 C4 12.31 4 14.62 4 17 C3.67 17 3.34 17 3 17 C2.86722656 16.10796875 2.73445312 15.2159375 2.59765625 14.296875 C2.42105469 13.12640625 2.24445313 11.9559375 2.0625 10.75 C1.88847656 9.58984375 1.71445313 8.4296875 1.53515625 7.234375 C1.1272264 4.76893039 0.66098697 2.40575438 0 0 Z " fill="#D0B67B" transform="translate(153,45)"/>
<path d="M0 0 C0.33 0 0.66 0 1 0 C1 2.97 1 5.94 1 9 C0.34 8.01 -0.32 7.02 -1 6 C-2.32 6.99 -3.64 7.98 -5 9 C-3.75471468 5.55151758 -2.38532951 2.80016942 0 0 Z " fill="#CFB57A" transform="translate(25,46)"/>
<path d="M0 0 C0.66 0.33 1.32 0.66 2 1 C-0.1875 3.5625 -0.1875 3.5625 -3 6 C-5.8125 5.8125 -5.8125 5.8125 -8 5 C-5.56159764 2.56159764 -3.14759102 1.37707107 0 0 Z " fill="#B9A66F" transform="translate(146,142)"/>
<path d="M0 0 C0.66 0.33 1.32 0.66 2 1 C1.34 1.66 0.68 2.32 0 3 C0.33 3.66 0.66 4.32 1 5 C-1.31 5 -3.62 5 -6 5 C-2.25 1.125 -2.25 1.125 0 0 Z " fill="#D4B97D" transform="translate(52,21)"/>
</svg>
