<svg xmlns="http://www.w3.org/2000/svg" viewBox="0 0 512 512">
  <defs>
    <linearGradient id="goldGrad" x1="0%" y1="0%" x2="100%" y2="100%">
      <stop offset="0%" stop-color="#D4AF50"/>
      <stop offset="50%" stop-color="#C4A030"/>
      <stop offset="100%" stop-color="#A08020"/>
    </linearGradient>
    <linearGradient id="goldGrad2" x1="0%" y1="0%" x2="100%" y2="100%">
      <stop offset="0%" stop-color="#E0C060"/>
      <stop offset="100%" stop-color="#B89030"/>
    </linearGradient>
  </defs>
  <!-- Full bleed background for maskable icon safe zone -->
  <rect width="512" height="512" fill="#1E2D0C"/>
  <!-- Outermost gold ring -->
  <circle cx="256" cy="256" r="240" fill="url(#goldGrad)"/>
  <!-- Dark olive green band -->
  <circle cx="256" cy="256" r="226" fill="#1E2D0C"/>
  <!-- Gold inner ring -->
  <circle cx="256" cy="256" r="210" fill="url(#goldGrad2)"/>
  <!-- Dark olive green center -->
  <circle cx="256" cy="256" r="192" fill="#1E2D0C"/>
  <!-- B letter: stem -->
  <rect x="148" y="124" width="44" height="264" rx="5" fill="url(#goldGrad)"/>
  <!-- B letter: top bowl -->
  <path d="M192 124 Q286 124 286 188 Q286 248 192 248 L192 168 Q242 168 242 188 Q242 204 192 204 Z" fill="url(#goldGrad)"/>
  <!-- B letter: bottom bowl -->
  <path d="M192 248 Q298 248 298 318 Q298 368 192 368 L192 292 Q254 292 254 318 Q254 334 192 334 Z" fill="url(#goldGrad)"/>
</svg>
